<svg width="30" height="30" viewBox="0 0 30 30" fill="none" xmlns="http://www.w3.org/2000/svg">
<g clip-path="url(#clip0_156_29)">
<path fill-rule="evenodd" clip-rule="evenodd" d="M10.102 3.1821C10.102 1.50254 11.4636 0.140991 13.1431 0.140991H26.9308C28.6104 0.140991 29.9719 1.50254 29.9719 3.1821V26.8181C29.9719 28.4976 28.6104 29.8592 26.9308 29.8592H16.4262C16.5928 29.4017 16.6837 28.908 16.6837 28.3929V24.4974C16.6837 24.3197 16.6763 24.1429 16.6618 23.9672C17.0353 24.0345 17.4164 24.069 17.8011 24.069H20.7398C23.1066 24.069 25.0254 22.1501 25.0254 19.7832C25.0254 17.8335 23.7234 16.1878 21.9416 15.6683C23.1474 14.542 23.9014 12.9378 23.9014 11.1576C23.9014 7.74951 21.1386 4.98675 17.7305 4.98675C14.9654 4.98675 12.6251 6.80544 11.8405 9.31187C11.2881 9.07749 10.7031 8.92048 10.102 8.84773V3.1821ZM14.2383 11.1576C14.2383 9.22884 15.8018 7.66532 17.7305 7.66532C19.6592 7.66532 21.2227 9.22884 21.2227 11.1576C21.2227 13.0863 19.6592 14.6498 17.7305 14.6498C15.8018 14.6498 14.2383 13.0863 14.2383 11.1576ZM14.4143 14.6308L14.4195 14.636L17.6133 17.8298C17.6636 17.8801 17.7317 17.9083 17.8027 17.9083L20.7414 17.9082C21.777 17.9082 22.6164 18.7477 22.6164 19.7832C22.6164 20.8187 21.777 21.6583 20.7415 21.6583H17.8028C16.7372 21.6583 15.7152 21.235 14.9617 20.4815L13.0885 18.6083L11.5683 20.1285L13.0961 21.6564C13.8496 22.4098 14.2729 23.4317 14.2729 24.4974V27.8567C14.2729 28.8921 13.4335 29.7317 12.3979 29.7317C11.3624 29.7317 10.5229 28.8921 10.5229 27.8567V24.4974C10.5229 24.4264 10.4947 24.3583 10.4445 24.3079L8.89035 22.7539C8.19555 23.2813 7.34327 23.5714 6.46107 23.5714H2.14285C1.10732 23.5714 0.267853 22.7319 0.267853 21.6964C0.267853 20.6609 1.10732 19.8214 2.14285 19.8214H6.46107C6.53211 19.8214 6.60023 19.7932 6.65048 19.7429L10.4368 15.9566L9.52052 15.0403C9.47029 14.9901 9.40215 14.9619 9.33111 14.9619L5.43529 14.9618C4.39977 14.9618 3.56031 14.1223 3.56033 13.0868C3.56033 12.0513 4.39982 11.2118 5.43535 11.2118L9.33115 11.2119C10.3967 11.2119 11.4187 11.6352 12.1722 12.3886L14.409 14.6255L14.4143 14.6308Z" fill="#6F068A"/>
</g>
<defs>
<clipPath id="clip0_156_29">
<rect width="30" height="30" fill="white"/>
</clipPath>
</defs>
</svg>
