<svg width="34" height="32" viewBox="0 0 34 32" fill="none" xmlns="http://www.w3.org/2000/svg">
<path d="M6.67802 24.1602C8.06744 23.1241 9.62033 22.3071 11.3367 21.7094C13.053 21.1116 14.8511 20.8127 16.7309 20.8127C18.6107 20.8127 20.4088 21.1116 22.1252 21.7094C23.8415 22.3071 25.3944 23.1241 26.7838 24.1602C27.7373 23.0709 28.4797 21.8356 29.011 20.4541C29.5422 19.0725 29.8079 17.5981 29.8079 16.0306C29.8079 12.4971 28.5342 9.48836 25.9869 7.00431C23.4397 4.52026 20.3543 3.27824 16.7309 3.27824C13.1075 3.27824 10.0222 4.52026 7.47489 7.00431C4.92761 9.48836 3.65397 12.4971 3.65397 16.0306C3.65397 17.5981 3.9196 19.0725 4.45085 20.4541C4.9821 21.8356 5.72449 23.0709 6.67802 24.1602ZM16.7309 17.6246C15.1235 17.6246 13.7682 17.0866 12.6648 16.0107C11.5614 14.9347 11.0098 13.6129 11.0098 12.0455C11.0098 10.478 11.5614 9.15627 12.6648 8.08029C13.7682 7.00431 15.1235 6.46632 16.7309 6.46632C18.3383 6.46632 19.6937 7.00431 20.797 8.08029C21.9004 9.15627 22.4521 10.478 22.4521 12.0455C22.4521 13.6129 21.9004 14.9347 20.797 16.0107C19.6937 17.0866 18.3383 17.6246 16.7309 17.6246ZM16.7309 31.971C14.4697 31.971 12.3447 31.5526 10.3559 30.7157C8.36712 29.8788 6.63715 28.7431 5.16599 27.3084C3.69484 25.8738 2.53017 24.1868 1.672 22.2473C0.813822 20.3079 0.384735 18.2357 0.384735 16.0306C0.384735 13.8255 0.813822 11.7532 1.672 9.81381C2.53017 7.87439 3.69484 6.18736 5.16599 4.75273C6.63715 3.31809 8.36712 2.18233 10.3559 1.34546C12.3447 0.508585 14.4697 0.0901489 16.7309 0.0901489C18.9921 0.0901489 21.1171 0.508585 23.1059 1.34546C25.0947 2.18233 26.8247 3.31809 28.2958 4.75273C29.767 6.18736 30.9317 7.87439 31.7898 9.81381C32.648 11.7532 33.0771 13.8255 33.0771 16.0306C33.0771 18.2357 32.648 20.3079 31.7898 22.2473C30.9317 24.1868 29.767 25.8738 28.2958 27.3084C26.8247 28.7431 25.0947 29.8788 23.1059 30.7157C21.1171 31.5526 18.9921 31.971 16.7309 31.971Z" fill="#1D1B20"/>
</svg>
