<svg width="48" height="20" viewBox="0 0 48 20" fill="none" xmlns="http://www.w3.org/2000/svg">
<path d="M30.125 2.43H32.135V16.365H30.125V2.43ZM24.65 3.405C26.75 3.405 28.295 5.325 28.295 8.355C28.295 11.415 26.75 13.335 24.65 13.335C22.55 13.335 21.005 11.415 21.005 8.355C21.005 5.325 22.55 3.405 24.65 3.405ZM24.65 5.22C23.615 5.22 22.91 6.315 22.91 8.355C22.91 10.425 23.615 11.535 24.65 11.535C25.685 11.535 26.375 10.425 26.375 8.355C26.375 6.315 25.685 5.22 24.65 5.22ZM41.9388 6.03H45.1788V7.635H41.9388V6.03ZM44.1288 2.46H46.1238V12.585H44.1288V2.46ZM36.9588 14.505H46.4388V16.095H36.9588V14.505ZM36.9588 11.73H38.9538V15.45H36.9588V11.73ZM37.7088 4.275H39.3288V5.145C39.3288 7.755 38.0988 10.17 35.4288 11.055L34.4238 9.465C36.7188 8.715 37.7088 6.9 37.7088 5.145V4.275ZM38.1288 4.275H39.7338V5.145C39.7338 6.765 40.6788 8.49 42.8688 9.225L41.8938 10.785C39.3138 9.93 38.1288 7.62 38.1288 5.145V4.275ZM34.9638 3.39H42.4338V4.965H34.9638V3.39Z" fill="black"/>
<path fill-rule="evenodd" clip-rule="evenodd" d="M8.74237 18.4091L0.267806 10.0337C-0.0892686 9.68109 -0.0892686 9.11149 0.267806 8.75801L8.74237 0.382555C9.25784 -0.127518 10.0965 -0.127518 10.6129 0.382555C11.1284 0.892628 11.1284 1.72047 10.6129 2.23054L3.36337 9.39629L10.6129 16.5602C11.1284 17.0712 11.1284 17.899 10.6129 18.4091C10.0965 18.9192 9.25784 18.9192 8.74237 18.4091Z" fill="black"/>
</svg>
