<svg width="27" height="27" viewBox="0 0 27 27" fill="none" xmlns="http://www.w3.org/2000/svg">
<path d="M25.7227 11.8594L23.3438 9.48211V3.65625C23.3438 2.75391 22.6055 2.01562 21.7031 2.01562H20.0625C19.1602 2.01562 18.4219 2.75391 18.4219 3.65625V4.56352L15.1406 1.28555C14.6927 0.862266 14.2826 0.375 13.5 0.375C12.7174 0.375 12.3073 0.862266 11.8594 1.28555L1.27734 11.8594C0.765469 12.3926 0.375 12.7814 0.375 13.5C0.375 14.4237 1.08375 15.1406 2.01562 15.1406H3.65625V24.9844C3.65625 25.8867 4.39453 26.625 5.29688 26.625H8.57812C9.48422 26.625 10.2188 25.8905 10.2188 24.9844V18.4219C10.2188 17.5195 10.957 16.7812 11.8594 16.7812H15.1406C16.043 16.7812 16.7812 17.5195 16.7812 18.4219V24.9844C16.7812 25.8905 16.6955 26.625 17.6016 26.625H21.7031C22.6055 26.625 23.3438 25.8867 23.3438 24.9844V15.1406H24.9844C25.9163 15.1406 26.625 14.4237 26.625 13.5C26.625 12.7814 26.2345 12.3926 25.7227 11.8594Z" fill="#6F068A" fill-opacity="0.870588"/>
</svg>
