<svg width="26" height="26" viewBox="0 0 26 26" fill="none" xmlns="http://www.w3.org/2000/svg">
<path fill-rule="evenodd" clip-rule="evenodd" d="M6.98847 0.580462C7.43721 1.20528 7.29445 2.07556 6.66965 2.52428C5.46852 3.3869 4.48988 4.52292 3.81455 5.83848C3.1392 7.15404 2.78655 8.6114 2.78571 10.0902C2.78529 10.8594 2.16132 11.4827 1.39207 11.4822C0.622815 11.4818 -0.000435133 10.8579 2.27946e-07 10.0886C0.00108813 8.16789 0.459132 6.275 1.3363 4.56628C2.21345 2.85756 3.48458 1.38205 5.04465 0.261637C5.66945 -0.187093 6.53974 -0.0443508 6.98847 0.580462ZM7.09061 4.76929C8.65787 3.20202 10.7836 2.32153 13 2.32153C15.2164 2.32153 17.3421 3.20202 18.9094 4.76929C20.4767 6.33655 21.3571 8.46223 21.3571 10.6787V17.1787C21.3571 17.6712 21.5529 18.1436 21.9011 18.4919C22.2493 18.8401 22.7218 19.0358 23.2143 19.0358C23.727 19.0358 24.1429 19.4516 24.1429 19.9644C24.1429 20.4771 23.727 20.893 23.2143 20.893H2.78571C2.27288 20.893 1.85714 20.4771 1.85714 19.9644C1.85714 19.4516 2.27288 19.0358 2.78571 19.0358C3.27827 19.0358 3.75063 18.8401 4.09892 18.4919C4.44719 18.1436 4.64286 17.6712 4.64286 17.1787V10.6787C4.64286 8.46223 5.52335 6.33655 7.09061 4.76929ZM9.75 24.6072C9.75 23.838 10.3736 23.2144 11.1429 23.2144H14.8571C15.6264 23.2144 16.25 23.838 16.25 24.6072C16.25 25.3765 15.6264 26.0001 14.8571 26.0001H11.1429C10.3736 26.0001 9.75 25.3765 9.75 24.6072ZM20.9554 0.261637C20.3305 -0.187093 19.4603 -0.0443508 19.0116 0.580462C18.5628 1.20528 18.7055 2.07556 19.3304 2.52428C20.5315 3.3869 21.5102 4.52292 22.1854 5.83848C22.8609 7.15404 23.2135 8.6114 23.2143 10.0902C23.2147 10.8594 23.8387 11.4827 24.6079 11.4822C25.3771 11.4818 26.0004 10.8579 26 10.0886C25.9989 8.16789 25.5409 6.275 24.6638 4.56628C23.7865 2.85756 22.5154 1.38205 20.9554 0.261637Z" fill="#6F068A"/>
</svg>
