<svg width="20" height="20" viewBox="0 0 20 20" fill="none" xmlns="http://www.w3.org/2000/svg">
<path fill-rule="evenodd" clip-rule="evenodd" d="M6.57143 2.42857C6.70633 2.24871 6.91803 2.14285 7.14286 2.14285H12.8571C13.082 2.14285 13.2937 2.24871 13.4286 2.42857L15.3571 5H17.8571C18.4254 5 18.9706 5.22577 19.3724 5.62762C19.7743 6.02948 20 6.57452 20 7.14285V15.7143C20 16.2826 19.7743 16.8277 19.3724 17.2296C18.9706 17.6314 18.4254 17.8571 17.8571 17.8571H2.14286C1.57453 17.8571 1.02949 17.6314 0.627629 17.2296C0.225764 16.8277 0 16.2826 0 15.7143V7.14285C0 6.57454 0.225764 6.02948 0.627629 5.62762C1.02949 5.22577 1.57453 5 2.14286 5H4.64286L6.57143 2.42857ZM13.5162 11.0162C13.5162 12.9581 11.9419 14.5323 9.99999 14.5323C8.05806 14.5323 6.48381 12.9581 6.48381 11.0162C6.48381 9.07424 8.05806 7.5 9.99999 7.5C11.9419 7.5 13.5162 9.07424 13.5162 11.0162Z" fill="black"/>
</svg>
